<svg width="392" height="392" viewBox="0 0 392 392" fill="none" xmlns="http://www.w3.org/2000/svg">
<path d="M166.523 383.002L169.145 360.897L171.886 361.222L171.589 363.724C172.328 362.926 173.212 362.356 174.239 362.014C175.266 361.673 176.366 361.572 177.538 361.711C179.067 361.892 180.397 362.392 181.529 363.211C182.66 364.03 183.502 365.087 184.053 366.381C184.582 367.692 184.753 369.142 184.564 370.731C184.376 372.32 183.872 373.68 183.053 374.812C182.214 375.941 181.149 376.771 179.857 377.303C178.566 377.834 177.155 378.009 175.626 377.828C174.494 377.694 173.477 377.351 172.576 376.801C171.672 376.271 170.952 375.551 170.415 374.642L169.383 383.341L166.523 383.002ZM177.003 364.185C176.01 364.067 175.079 364.189 174.21 364.549C173.34 364.929 172.626 365.509 172.07 366.289C171.512 367.089 171.169 368.035 171.039 369.127C170.909 370.219 171.024 371.21 171.381 372.098C171.737 373.006 172.295 373.737 173.055 374.29C173.815 374.844 174.692 375.179 175.685 375.297C176.697 375.417 177.638 375.297 178.507 374.937C179.355 374.575 180.069 373.995 180.646 373.197C181.202 372.417 181.545 371.481 181.674 370.389C181.804 369.296 181.691 368.296 181.336 367.388C180.958 366.497 180.4 365.766 179.662 365.195C178.902 364.642 178.016 364.305 177.003 364.185Z" fill="#555555"/>
<path d="M142.857 362.673C142.915 362.46 143.01 362.186 143.143 361.849L155.592 365.229C155.785 363.831 155.493 362.58 154.714 361.478C153.912 360.389 152.757 359.641 151.252 359.232C149.418 358.734 147.774 358.951 146.319 359.882L145.272 357.671C146.187 357.049 147.223 356.667 148.381 356.525C149.519 356.378 150.725 356.478 151.999 356.824C153.62 357.264 154.969 357.982 156.046 358.979C157.117 359.996 157.837 361.196 158.207 362.582C158.558 363.962 158.529 365.405 158.12 366.91C157.716 368.396 157.024 369.649 156.043 370.667C155.043 371.68 153.874 372.358 152.538 372.7C151.177 373.056 149.763 373.034 148.296 372.636C146.83 372.238 145.618 371.546 144.663 370.561C143.683 369.591 143.037 368.421 142.725 367.051C142.394 365.676 142.438 364.217 142.857 362.673ZM148.933 370.291C150.265 370.653 151.494 370.551 152.622 369.987C153.73 369.417 154.539 368.497 155.05 367.227L145.206 364.554C145.009 365.889 145.255 367.085 145.942 368.142C146.604 369.213 147.601 369.929 148.933 370.291Z" fill="#555555"/>
<path d="M117.085 361.115L129.692 349.186L132.399 350.332L132.611 367.687L129.848 366.518L129.79 352.648L119.681 362.214L117.085 361.115Z" fill="#555555"/>
<path d="M100.243 342.407C100.355 342.218 100.52 341.979 100.738 341.69L111.831 348.275C112.391 346.979 112.443 345.696 111.988 344.425C111.505 343.162 110.593 342.132 109.252 341.336C107.618 340.366 105.976 340.135 104.325 340.644L103.907 338.233C104.955 337.878 106.055 337.787 107.209 337.96C108.345 338.123 109.48 338.541 110.616 339.215C112.06 340.072 113.168 341.125 113.939 342.374C114.699 343.639 115.073 344.989 115.059 346.423C115.028 347.846 114.614 349.229 113.818 350.57C113.032 351.895 112.03 352.916 110.812 353.635C109.577 354.344 108.27 354.685 106.891 354.657C105.485 354.636 104.128 354.238 102.821 353.462C101.514 352.686 100.532 351.696 99.8744 350.492C99.1896 349.295 98.88 347.994 98.9454 346.591C98.9936 345.178 99.4261 343.783 100.243 342.407ZM104.061 351.373C105.248 352.077 106.46 352.308 107.697 352.065C108.917 351.813 109.943 351.142 110.775 350.055L102.004 344.848C101.457 346.082 101.374 347.3 101.753 348.502C102.105 349.711 102.875 350.668 104.061 351.373Z" fill="#555555"/>
<path d="M83.2981 347.953L81.001 346.216L94.4276 328.461L96.7247 330.198L83.2981 347.953Z" fill="#555555"/>
<path d="M81.1974 316.921C82.3403 318.012 83.1258 319.246 83.5538 320.622C83.9819 321.998 84.0351 323.376 83.7135 324.756C83.3636 326.136 82.65 327.391 81.5729 328.519C80.4957 329.647 79.2827 330.411 77.934 330.81C76.557 331.21 75.178 331.221 73.797 330.843C72.4023 330.479 71.1335 329.752 69.9906 328.661C68.8478 327.57 68.0695 326.343 67.6559 324.98C67.2141 323.618 67.1681 322.247 67.518 320.867C67.8396 319.488 68.539 318.233 69.6162 317.105C70.6934 315.977 71.9205 315.213 73.2975 314.813C74.6462 314.414 76.018 314.396 77.4127 314.76C78.793 315.11 80.0546 315.83 81.1974 316.921ZM79.4574 318.744C78.7196 318.04 77.9025 317.578 77.0062 317.358C76.0817 317.139 75.163 317.174 74.2502 317.464C73.3237 317.769 72.4806 318.319 71.7211 319.114C70.9615 319.91 70.4581 320.771 70.2108 321.696C69.9497 322.635 69.9569 323.555 70.2324 324.454C70.4935 325.339 70.9929 326.134 71.7307 326.838C72.4685 327.542 73.2928 328.011 74.2035 328.245C75.0998 328.464 76.0185 328.429 76.9595 328.138C77.8723 327.848 78.7084 327.305 79.468 326.51C80.2275 325.714 80.7378 324.846 80.9989 323.907C81.2318 322.968 81.2246 322.048 80.9773 321.149C80.7018 320.25 80.1952 319.448 79.4574 318.744Z" fill="#555555"/>
<path d="M50.8956 307.458C49.9531 306.24 49.3774 304.94 49.1685 303.559C48.9596 302.178 49.1295 300.845 49.6781 299.561C50.2145 298.261 51.1154 297.121 52.3807 296.142C53.6461 295.163 54.9833 294.57 56.3923 294.365C57.7733 294.156 59.1061 294.326 60.3905 294.875C61.6749 295.423 62.7884 296.306 63.7309 297.524C64.4286 298.426 64.8973 299.391 65.1368 300.419C65.3642 301.432 65.3477 302.457 65.0873 303.493L71.588 298.462L73.3506 300.739L56.1736 314.032L54.4844 311.85L56.4773 310.307C55.3897 310.34 54.372 310.103 53.4242 309.598C52.4607 309.104 51.6178 308.391 50.8956 307.458ZM61.8849 299.256C61.2606 298.45 60.5218 297.871 59.6684 297.52C58.7869 297.165 57.8733 297.063 56.9274 297.213C55.9536 297.36 55.0316 297.77 54.1617 298.443C53.2918 299.116 52.6716 299.9 52.301 300.794C51.9024 301.684 51.7722 302.594 51.9102 303.524C52.0361 304.438 52.4111 305.298 53.0354 306.105C53.6474 306.896 54.3942 307.469 55.2756 307.823C56.129 308.175 57.0348 308.283 57.9928 308.148C58.9387 307.998 59.8466 307.586 60.7165 306.913C61.5864 306.24 62.2207 305.458 62.6193 304.568C63.002 303.69 63.1323 302.78 63.01 301.838C62.872 300.908 62.4969 300.047 61.8849 299.256Z" fill="#555555"/>
<path d="M30.1291 273.514C29.2174 271.734 29.0134 270.064 29.5171 268.502C30.0117 266.923 31.2736 265.614 33.303 264.575L41.447 260.404L42.7598 262.967L34.9095 266.988C33.5388 267.69 32.6705 268.539 32.3044 269.535C31.9293 270.514 32.0426 271.591 32.6443 272.766C33.3098 274.065 34.248 274.888 35.4589 275.234C36.652 275.589 38.0051 275.379 39.5182 274.604L46.8078 270.871L48.1206 273.434L40.2703 277.455C38.8996 278.157 38.0312 279.006 37.6652 280.002C37.29 280.981 37.4033 282.058 38.005 283.233C38.6705 284.532 39.6088 285.355 40.8196 285.701C42.0127 286.056 43.3658 285.846 44.8789 285.071L52.1685 281.338L53.4813 283.901L39.3294 291.149L38.0712 288.693L40.1807 287.612C39.1864 287.47 38.2882 287.076 37.4859 286.431C36.6657 285.795 35.9822 284.943 35.4351 283.875C34.8699 282.771 34.591 281.678 34.5984 280.596C34.6058 279.513 34.9182 278.522 35.5357 277.621C34.4433 277.507 33.4241 277.096 32.4781 276.39C31.5229 275.666 30.7399 274.707 30.1291 273.514Z" fill="#555555"/>
<path d="M26.518 239.363C26.7285 239.299 27.0119 239.234 27.368 239.168L31.1051 251.515C32.3929 250.937 33.2978 250.026 33.8196 248.781C34.3165 247.523 34.339 246.148 33.8871 244.655C33.3366 242.836 32.2809 241.557 30.7197 240.818L32.0393 238.757C33.0519 239.203 33.9252 239.879 34.6592 240.785C35.3874 241.672 35.9427 242.747 36.3251 244.011C36.8118 245.619 36.918 247.143 36.6438 248.585C36.3504 250.032 35.7146 251.279 34.7363 252.328C33.7523 253.357 32.5137 254.098 31.0206 254.549C29.5466 254.996 28.1178 255.073 26.7339 254.781C25.3443 254.47 24.1503 253.839 23.1518 252.888C22.1284 251.923 21.3965 250.713 20.9562 249.258C20.5158 247.803 20.4597 246.41 20.7879 245.078C21.0911 243.732 21.7405 242.564 22.7361 241.573C23.726 240.563 24.9866 239.826 26.518 239.363ZM23.282 248.554C23.6818 249.875 24.4198 250.864 25.4961 251.52C26.5666 252.157 27.7759 252.355 29.1239 252.114L26.169 242.352C24.9328 242.893 24.0489 243.735 23.5172 244.878C22.9606 246.008 22.8822 247.233 23.282 248.554Z" fill="#555555"/>
<path d="M14.8993 222.067C14.6038 220.069 14.9533 218.4 15.9479 217.06C16.9199 215.703 18.5237 214.859 20.7593 214.529L29.8109 213.19L30.2323 216.039L21.5072 217.33C19.9838 217.555 18.8904 218.091 18.2271 218.937C17.5637 219.783 17.333 220.889 17.535 222.254C17.7632 223.797 18.3983 224.946 19.4401 225.702C20.4621 226.461 21.8139 226.716 23.4956 226.467L31.5975 225.269L32.0189 228.118L16.29 230.444L15.8862 227.714L18.2603 227.363C17.3643 226.909 16.6269 226.229 16.0483 225.324C15.4667 224.399 15.0837 223.314 14.8993 222.067Z" fill="#555555"/>
<path d="M28.0888 193.767C28.4561 194.181 28.7451 194.696 28.9559 195.312C29.1467 195.929 29.2478 196.567 29.2593 197.227C29.2872 198.827 28.8789 200.074 28.0344 200.969C27.1898 201.864 25.9677 202.325 24.368 202.353L15.6393 202.506L15.6864 205.205L13.3167 205.246L13.2696 202.547L9.79017 202.608L9.73995 199.728L13.2194 199.667L13.1399 195.108L15.5095 195.067L15.5891 199.626L24.1977 199.476C25.0576 199.461 25.7139 199.239 26.1665 198.811C26.6187 198.363 26.8379 197.74 26.8239 196.94C26.8086 196.06 26.5455 195.314 26.0348 194.703L28.0888 193.767Z" fill="#555555"/>
<path d="M25.776 168.491C25.6534 169.241 25.292 169.84 24.6917 170.289C24.0947 170.719 23.4014 170.869 22.6119 170.74C21.8618 170.617 21.2737 170.248 20.8476 169.631C20.4018 169.011 20.2385 168.336 20.3578 167.605C20.4772 166.875 20.8452 166.297 21.462 165.871C22.0623 165.422 22.7375 165.258 23.4875 165.381C24.2771 165.51 24.8849 165.883 25.311 166.5C25.7403 167.097 25.8953 167.76 25.776 168.491Z" fill="#555555"/>
<path d="M21.8618 121.751L42.656 129.695L41.6711 132.273L39.317 131.374C39.9107 132.286 40.2475 133.281 40.3275 134.361C40.4075 135.441 40.2369 136.532 39.8158 137.634C39.2662 139.073 38.4561 140.24 37.3855 141.137C36.3149 142.034 35.0849 142.592 33.6954 142.811C32.2944 143.003 30.8465 142.814 29.3519 142.243C27.8572 141.672 26.6614 140.851 25.7644 139.781C24.8746 138.692 24.3297 137.456 24.1299 136.073C23.93 134.691 24.1049 133.281 24.6545 131.842C25.0613 130.777 25.6415 129.875 26.3951 129.135C27.1301 128.388 28.0041 127.866 29.0172 127.567L20.834 124.441L21.8618 121.751ZM37.5474 136.51C37.9042 135.576 38.0141 134.644 37.8771 133.714C37.7213 132.777 37.3331 131.943 36.7126 131.214C36.0734 130.477 35.24 129.913 34.2124 129.52C33.1849 129.128 32.1967 128.996 31.2478 129.126C30.2803 129.249 29.4353 129.611 28.713 130.213C27.9907 130.815 27.451 131.583 27.0942 132.517C26.7302 133.47 26.6167 134.411 26.7538 135.342C26.898 136.253 27.2861 137.087 27.9182 137.842C28.5388 138.571 29.3628 139.132 30.3904 139.525C31.4179 139.917 32.4155 140.052 33.383 139.929C34.339 139.781 35.184 139.419 35.9178 138.843C36.6402 138.241 37.1834 137.463 37.5474 136.51Z" fill="#555555"/>
<path d="M47.3536 103.769C47.5453 103.877 47.7884 104.037 48.0826 104.248L41.7629 115.494C43.0716 116.023 44.3555 116.045 45.6148 115.559C46.8664 115.047 47.8743 114.11 48.6385 112.75C49.5693 111.094 49.7609 109.447 49.2133 107.808L51.6138 107.333C51.9933 108.373 52.1104 109.471 51.9649 110.628C51.8292 111.767 51.438 112.913 50.7913 114.063C49.9683 115.528 48.9419 116.66 47.7122 117.461C46.4651 118.251 45.1247 118.656 43.691 118.676C42.267 118.679 40.8751 118.298 39.5151 117.534C38.1726 116.78 37.1274 115.802 36.3795 114.602C35.6414 113.384 35.2699 112.086 35.265 110.707C35.2524 109.3 35.6184 107.934 36.3631 106.609C37.1077 105.284 38.0742 104.279 39.2625 103.593C40.4432 102.88 41.7357 102.539 43.1401 102.572C44.5542 102.586 45.9587 102.985 47.3536 103.769ZM38.4815 107.8C37.8054 109.003 37.6033 110.22 37.8751 111.451C38.1567 112.664 38.8511 113.674 39.9583 114.48L44.9553 105.588C43.7087 105.071 42.489 105.016 41.2962 105.424C40.0958 105.805 39.1576 106.597 38.4815 107.8Z" fill="#555555"/>
<path d="M62.263 96.4352C61.4822 97.4745 60.5955 98.3718 59.6028 99.127C58.5942 99.8702 57.6698 100.351 56.8296 100.571L55.7276 98.2418C56.5478 97.9825 57.3781 97.5432 58.2186 96.9238C59.0592 96.3045 59.7857 95.5871 60.3984 94.7716C61.9121 92.7569 62.0933 91.317 60.942 90.4521C60.5582 90.1638 60.1523 90.0714 59.7242 90.1751C59.2961 90.2787 58.8779 90.5024 58.4697 90.8461C58.0574 91.1617 57.505 91.6473 56.8125 92.3027C55.8837 93.2059 55.0691 93.9072 54.3687 94.4067C53.6803 94.8901 52.9141 95.1775 52.07 95.2688C51.2259 95.3601 50.3562 95.0694 49.4607 94.3966C48.3094 93.5317 47.7504 92.3612 47.7836 90.8852C47.8008 89.3973 48.4161 87.8458 49.6295 86.2308C50.2662 85.3833 51.0068 84.6139 51.8514 83.9226C52.6959 83.2313 53.4983 82.7459 54.2586 82.4666L55.3426 84.8195C53.8902 85.3543 52.6354 86.3252 51.5782 87.7324C50.8454 88.7078 50.4467 89.5714 50.3821 90.3234C50.3175 91.0753 50.549 91.6495 51.0767 92.046C51.4924 92.3583 51.9283 92.4607 52.3844 92.353C52.8405 92.2454 53.2807 92.0258 53.705 91.6941C54.1412 91.3465 54.7197 90.843 55.4402 90.1836C56.3849 89.2923 57.1955 88.613 57.8719 88.1456C58.5443 87.6501 59.2885 87.3587 60.1046 87.2714C60.9207 87.1841 61.7604 87.4648 62.6239 88.1135C63.7752 88.9784 64.3222 90.1649 64.265 91.6728C64.2038 93.1528 63.5364 94.7402 62.263 96.4352Z" fill="#555555"/>
<path d="M60.6876 73.0706L62.6449 70.9579L74.3083 81.7642L72.351 83.8768L60.6876 73.0706ZM59.4216 69.9346C59.041 70.3454 58.5895 70.5678 58.0672 70.6019C57.5584 70.6213 57.1133 70.4543 56.7319 70.1009C56.3504 69.7475 56.15 69.3164 56.1306 68.8076C56.1101 68.2706 56.2902 67.7967 56.6708 67.3859C57.0514 66.9751 57.496 66.76 58.0048 66.7406C58.5124 66.693 58.957 66.8458 59.3384 67.1992C59.7346 67.5663 59.9429 68.0183 59.9634 68.5553C59.9828 69.064 59.8022 69.5238 59.4216 69.9346Z" fill="#555555"/>
<path d="M83.0612 52.0652L91.9745 62.5219C93.7779 64.6376 94.5826 66.6453 94.3887 68.5451C94.2077 70.4601 93.0746 72.3064 90.9893 74.0838C89.8478 75.0569 88.6233 75.8247 87.3158 76.3873C86.0213 76.9651 84.8079 77.2373 83.6756 77.2038L83.2857 74.6191C84.2641 74.6261 85.281 74.4163 86.3364 73.9897C87.4201 73.5653 88.4033 72.9769 89.2861 72.2244C90.7016 71.0178 91.4588 69.7942 91.5577 68.5536C91.6717 67.3001 91.145 65.9884 89.9773 64.6185L89.1599 63.6596C89.1743 64.7248 88.9373 65.7415 88.4487 66.7099C87.9623 67.65 87.2778 68.4963 86.395 69.2488C85.2382 70.2349 83.9804 70.8865 82.6215 71.2039C81.2649 71.493 79.944 71.4232 78.6588 70.9945C77.3606 70.5506 76.2249 69.7578 75.2519 68.6163C74.2788 67.4747 73.6824 66.2355 73.4626 64.8986C73.2299 63.5465 73.3701 62.2312 73.8834 60.9527C74.412 59.6612 75.2546 58.5225 76.4114 57.5364C77.3246 56.758 78.3121 56.2054 79.3738 55.8785C80.4507 55.5387 81.5193 55.482 82.5794 55.7084L80.9836 53.8362L83.0612 52.0652ZM85.0114 67.1169C85.8029 66.4423 86.3679 65.6716 86.7065 64.8048C87.0604 63.925 87.1593 63.0391 87.0034 62.1471C86.8498 61.2269 86.4486 60.3863 85.7999 59.6252C84.8009 58.4532 83.6083 57.8404 82.2223 57.7867C80.8233 57.7177 79.5149 58.2023 78.2973 59.2402C77.0644 60.2911 76.3712 61.5127 76.2177 62.905C76.0512 64.282 76.4675 65.5565 77.4665 66.7285C78.1152 67.4896 78.8741 68.0253 79.7431 68.3357C80.6144 68.618 81.5048 68.6605 82.4143 68.4635C83.339 68.2534 84.2047 67.8046 85.0114 67.1169Z" fill="#555555"/>
<path d="M100.513 39.944C102.232 38.8831 103.904 38.5449 105.528 38.9293C107.158 39.2862 108.567 40.4263 109.754 42.3495L114.559 50.136L112.108 51.6486L107.476 44.1429C106.667 42.8324 105.743 42.0395 104.704 41.7644C103.665 41.4893 102.558 41.7141 101.383 42.4389C100.056 43.2582 99.2506 44.2956 98.9679 45.5512C98.6747 46.7898 98.9745 48.1324 99.8673 49.579L104.169 56.5486L101.718 58.0612L93.3673 44.5305L95.716 43.081L96.9764 45.1233C97.0394 44.1209 97.3723 43.1752 97.9751 42.286C98.595 41.3864 99.4411 40.6057 100.513 39.944Z" fill="#555555"/>
<path d="M136.589 34.1426C135.875 34.4032 135.175 34.3818 134.49 34.0785C133.823 33.7684 133.352 33.2375 133.078 32.486C132.817 31.7721 132.852 31.0783 133.181 30.4047C133.503 29.7123 134.011 29.2392 134.706 28.9854C135.402 28.7317 136.086 28.7693 136.76 29.0983C137.445 29.4016 137.918 29.9102 138.179 30.6241C138.453 31.3756 138.426 32.0882 138.097 32.7618C137.787 33.4286 137.284 33.8888 136.589 34.1426Z" fill="#555555"/>
<path d="M167.107 15.353C169.28 15.0115 171.024 15.2841 172.337 16.1709C173.671 17.0546 174.503 18.5535 174.836 20.6676L176.326 30.1512L173.629 30.575L173.303 28.5005C172.944 29.306 172.351 29.9762 171.524 30.5111C170.713 31.0231 169.706 31.3738 168.5 31.5632C166.742 31.8396 165.263 31.6368 164.062 30.9549C162.882 30.2699 162.183 29.2359 161.965 27.8529C161.748 26.4698 162.078 25.2842 162.955 24.2961C163.829 23.2881 165.363 22.6119 167.556 22.2672L172.06 21.5592L171.972 20.9962C171.779 19.7712 171.276 18.8886 170.463 18.3484C169.649 17.8082 168.55 17.6467 167.167 17.8641C166.239 18.01 165.355 18.3109 164.515 18.7668C163.673 19.2029 162.986 19.7259 162.454 20.3358L160.933 18.3883C161.641 17.609 162.531 16.9629 163.605 16.4501C164.675 15.9174 165.842 15.5518 167.107 15.353ZM168.63 29.2956C169.717 29.1249 170.618 28.7403 171.334 28.1419C172.046 27.5238 172.511 26.7422 172.727 25.7972L172.382 23.6041L167.996 24.2935C165.585 24.6723 164.507 25.6717 164.762 27.2919C164.886 28.0822 165.29 28.6564 165.974 29.0146C166.658 29.3727 167.543 29.4664 168.63 29.2956Z" fill="#555555"/>
<path d="M194.491 13.0649C196.031 13.0468 197.415 13.3705 198.643 14.0361C199.871 14.7017 200.832 15.6405 201.526 16.8524C202.241 18.0641 202.607 19.4698 202.626 21.0697C202.645 22.6696 202.312 24.0936 201.626 25.3418C200.961 26.5697 200.022 27.5308 198.81 28.2251C197.598 28.9194 196.222 29.2756 194.682 29.2938C193.542 29.3072 192.49 29.0995 191.525 28.6709C190.58 28.242 189.772 27.6114 189.102 26.7792L189.199 34.9987L186.319 35.0325L186.064 13.314L188.823 13.2816L188.853 15.8014C189.483 14.9139 190.285 14.2445 191.26 13.793C192.234 13.3215 193.311 13.0788 194.491 13.0649ZM194.413 26.7768C195.433 26.7648 196.34 26.5241 197.134 26.0547C197.949 25.5651 198.581 24.8976 199.031 24.0522C199.501 23.1867 199.729 22.2039 199.716 21.104C199.703 20.004 199.452 19.0369 198.962 18.2026C198.492 17.3481 197.844 16.6957 197.019 16.2454C196.214 15.7948 195.301 15.5755 194.281 15.5875C193.281 15.5993 192.374 15.85 191.56 16.3396C190.765 16.809 190.133 17.4665 189.663 18.3121C189.213 19.1574 188.994 20.13 189.007 21.23C189.02 22.3299 189.261 23.3071 189.731 24.1616C190.201 24.9962 190.849 25.6486 191.675 26.1189C192.5 26.5692 193.413 26.7885 194.413 26.7768Z" fill="#555555"/>
<path d="M222.379 14.9725C223.904 15.1892 225.222 15.72 226.334 16.5649C227.447 17.4098 228.253 18.484 228.755 19.7876C229.276 21.0939 229.425 22.5391 229.199 24.1232C228.974 25.7073 228.428 27.0639 227.56 28.1931C226.716 29.3053 225.641 30.1122 224.338 30.6137C223.034 31.1153 221.62 31.2577 220.095 31.041C218.967 30.8806 217.958 30.5151 217.07 29.9444C216.201 29.3765 215.499 28.6303 214.964 27.7058L213.807 35.844L210.956 35.4388L214.012 13.9349L216.744 14.3232L216.39 16.8181C217.147 16.0369 218.042 15.4975 219.074 15.1998C220.109 14.8822 221.211 14.8065 222.379 14.9725ZM220.212 28.5123C221.222 28.6559 222.156 28.5562 223.012 28.2133C223.892 27.8535 224.618 27.2901 225.192 26.5232C225.788 25.7393 226.164 24.8028 226.318 23.7138C226.473 22.6247 226.372 21.6306 226.015 20.7314C225.681 19.8152 225.14 19.0717 224.393 18.5009C223.665 17.933 222.797 17.5772 221.787 17.4337C220.797 17.293 219.862 17.4025 218.983 17.7624C218.126 18.1052 217.401 18.6587 216.808 19.4228C216.234 20.1897 215.87 21.1177 215.715 22.2068C215.56 23.2958 215.65 24.2985 215.984 25.2146C216.322 26.111 216.862 26.8545 217.607 27.4451C218.354 28.0159 219.222 28.3716 220.212 28.5123Z" fill="#555555"/>
<path d="M241.28 35.5598C240.03 35.2013 238.876 34.6932 237.816 34.0354C236.762 33.3584 235.983 32.6666 235.478 31.96L237.26 30.0994C237.795 30.7731 238.502 31.392 239.38 31.9561C240.259 32.5203 241.188 32.943 242.169 33.2243C244.591 33.9193 246.001 33.5747 246.398 32.1906C246.53 31.7292 246.471 31.317 246.222 30.9541C245.972 30.5912 245.614 30.2804 245.147 30.0216C244.705 29.7492 244.055 29.4064 243.195 28.9934C242.02 28.4481 241.074 27.9375 240.358 27.4614C239.66 26.9908 239.119 26.3776 238.732 25.6217C238.346 24.8658 238.307 23.9495 238.616 22.873C239.013 21.4888 239.907 20.5489 241.297 20.0532C242.693 19.5383 244.362 19.5594 246.304 20.1165C247.323 20.4088 248.306 20.8261 249.253 21.3683C250.2 21.9106 250.94 22.487 251.472 23.0974L249.661 24.9498C248.643 23.7838 247.288 22.9582 245.597 22.4728C244.424 22.1363 243.475 22.0721 242.749 22.2801C242.024 22.488 241.57 22.9092 241.388 23.5436C241.245 24.0435 241.305 24.4872 241.568 24.8749C241.831 25.2625 242.194 25.5953 242.655 25.8733C243.135 26.1568 243.812 26.5174 244.685 26.9552C245.855 27.5197 246.779 28.0345 247.457 28.4995C248.16 28.9508 248.697 29.5421 249.07 30.2732C249.443 31.0044 249.48 31.8891 249.183 32.9272C248.785 34.3113 247.872 35.2457 246.443 35.7304C245.039 36.2014 243.318 36.1445 241.28 35.5598Z" fill="#555555"/>
<path d="M275.204 49.311C273.776 48.5469 272.662 47.5544 271.864 46.3334C271.083 45.1218 270.663 43.8084 270.603 42.393C270.553 40.96 270.896 39.5557 271.632 38.1801C272.368 36.8046 273.341 35.7487 274.551 35.0125C275.771 34.2587 277.096 33.8792 278.528 33.8738C279.987 33.8603 281.431 34.2356 282.859 34.9997C284.129 35.6789 285.121 36.5384 285.835 37.5781C286.567 38.6272 286.946 39.7829 286.974 41.0453L284.378 41.2557C284.296 40.3497 284.018 39.5547 283.544 38.8706C283.071 38.1864 282.438 37.6321 281.644 37.2076C280.727 36.7171 279.79 36.4766 278.832 36.486C277.892 36.5048 277.008 36.7802 276.179 37.3122C275.377 37.8359 274.717 38.5827 274.198 39.5527C273.669 40.5403 273.405 41.5217 273.405 42.497C273.432 43.4641 273.699 44.3439 274.205 45.1362C274.729 45.938 275.449 46.5842 276.366 47.0748C277.16 47.4992 277.972 47.7185 278.804 47.7324C279.636 47.7464 280.452 47.5362 281.251 47.1019L282.531 49.3517C281.466 50.0292 280.289 50.3637 279 50.355C277.739 50.3382 276.474 49.9902 275.204 49.311Z" fill="#555555"/>
<path d="M298.609 47.9691C299.547 47.5031 300.555 47.3551 301.633 47.525C302.711 47.6948 303.823 48.1818 304.969 48.9858L303.366 51.2698C303.247 51.1616 303.073 51.027 302.843 50.8662C301.566 49.9703 300.289 49.6486 299.013 49.9013C297.764 50.149 296.646 50.9769 295.658 52.385L291.109 58.8686L288.752 57.2146L297.883 44.1983L300.143 45.7834L298.609 47.9691Z" fill="#555555"/>
<path d="M318.853 71.5005C318.705 71.6636 318.496 71.8653 318.225 72.1054L308.658 63.452C307.852 64.6111 307.546 65.8583 307.741 67.1938C307.963 68.5278 308.653 69.718 309.81 70.7645C311.219 72.039 312.783 72.5907 314.502 72.4195L314.434 74.8656C313.336 75.0056 312.239 74.8765 311.143 74.4783C310.062 74.0936 309.032 73.4585 308.053 72.573C306.807 71.4461 305.93 70.1944 305.422 68.8181C304.927 67.4269 304.829 66.03 305.127 64.6274C305.44 63.2382 306.119 61.9651 307.166 60.8082C308.199 59.666 309.383 58.8632 310.719 58.3998C312.07 57.9497 313.419 57.875 314.765 58.1757C316.139 58.4749 317.39 59.1343 318.517 60.154C319.645 61.1736 320.411 62.3387 320.817 63.6494C321.25 64.9587 321.296 66.2945 320.954 67.6569C320.626 69.0327 319.926 70.3139 318.853 71.5005ZM316.887 61.9561C315.864 61.0304 314.722 60.5638 313.461 60.5562C312.215 60.562 311.077 61.0156 310.046 61.9169L317.611 68.7591C318.391 67.658 318.714 66.4806 318.581 65.2271C318.475 63.9722 317.911 62.8818 316.887 61.9561Z" fill="#555555"/>
<path d="M335.926 78.1653C337.339 79.8518 338.004 81.4865 337.921 83.0692C337.85 84.6673 336.995 86.1534 335.355 87.5276L327.995 93.692L326.242 91.5991L327.852 90.2507C326.977 90.3579 326.097 90.1949 325.212 89.7619C324.356 89.3313 323.536 88.6483 322.752 87.7131C321.609 86.3485 321.021 84.9762 320.987 83.596C320.965 82.2312 321.491 81.0993 322.564 80.2003C323.638 79.3013 324.824 78.9731 326.123 79.2157C327.437 79.4454 328.807 80.4112 330.232 82.113L333.16 85.6087L333.597 85.2427C334.548 84.4465 335.045 83.5605 335.089 82.5847C335.132 81.609 334.704 80.5845 333.806 79.5112C333.202 78.7906 332.489 78.1881 331.665 77.7036C330.857 77.2063 330.055 76.887 329.258 76.7456L330.144 74.4387C331.176 74.6435 332.189 75.0737 333.181 75.7293C334.189 76.3721 335.104 77.1841 335.926 78.1653ZM324.762 86.6555C325.469 87.4988 326.263 88.0729 327.144 88.378C328.041 88.6702 328.95 88.6654 329.872 88.3634L331.573 86.9379L328.722 83.5342C327.156 81.6637 325.744 81.255 324.486 82.3081C323.873 82.8218 323.589 83.464 323.635 84.2346C323.68 85.0053 324.056 85.8123 324.762 86.6555Z" fill="#555555"/>
<path d="M339.493 108.836C338.962 108.68 338.444 108.397 337.938 107.986C337.449 107.564 337.025 107.077 336.665 106.524C335.792 105.182 335.477 103.909 335.718 102.702C335.959 101.495 336.75 100.456 338.091 99.5835L345.41 94.8235L343.937 92.5602L345.924 91.268L347.396 93.5313L350.313 91.6339L351.884 94.0481L348.967 95.9455L351.453 99.7681L349.466 101.06L346.98 97.2378L339.762 101.932C339.041 102.401 338.603 102.937 338.446 103.54C338.3 104.16 338.445 104.805 338.882 105.475C339.361 106.213 339.98 106.706 340.737 106.953L339.493 108.836Z" fill="#555555"/>
<path d="M357.089 109.614L358.425 112.165L344.341 119.543L343.004 116.992L357.089 109.614ZM360.467 109.469C360.207 108.973 360.149 108.473 360.291 107.97C360.443 107.484 360.749 107.12 361.21 106.879C361.671 106.637 362.144 106.593 362.63 106.744C363.143 106.905 363.529 107.233 363.789 107.729C364.049 108.225 364.103 108.716 363.951 109.202C363.826 109.696 363.534 110.064 363.073 110.305C362.595 110.556 362.099 110.601 361.586 110.441C361.1 110.289 360.727 109.965 360.467 109.469Z" fill="#555555"/>
<path d="M367.145 131.393C367.866 133.28 367.886 134.985 367.205 136.508C366.549 138.043 365.166 139.214 363.055 140.021L354.507 143.286L353.479 140.596L361.719 137.448C363.157 136.898 364.109 136.139 364.573 135.169C365.038 134.199 365.024 133.07 364.532 131.781C363.975 130.324 363.106 129.339 361.926 128.826C360.764 128.307 359.389 128.35 357.801 128.957L350.15 131.88L349.122 129.189L363.975 123.515L364.96 126.094L362.718 126.95C363.691 127.199 364.558 127.703 365.319 128.461C366.087 129.239 366.695 130.216 367.145 131.393Z" fill="#555555"/>
<path d="M376.257 164.824L362.824 167.715C360.106 168.299 357.957 168.056 356.376 166.985C354.776 165.918 353.688 164.045 353.111 161.366C352.796 159.9 352.7 158.457 352.824 157.04C352.929 155.626 353.265 154.428 353.831 153.447L356.292 154.329C355.822 155.187 355.525 156.182 355.4 157.314C355.26 158.469 355.312 159.614 355.556 160.748C355.947 162.566 356.665 163.813 357.711 164.488C358.761 165.183 360.165 165.341 361.925 164.962L363.157 164.697C362.212 164.205 361.429 163.514 360.808 162.625C360.211 161.751 359.79 160.747 359.546 159.613C359.227 158.127 359.249 156.71 359.614 155.364C360.002 154.032 360.69 152.902 361.677 151.974C362.683 151.041 363.919 150.417 365.386 150.101C366.852 149.786 368.226 149.848 369.508 150.288C370.808 150.725 371.9 151.472 372.782 152.53C373.669 153.607 374.272 154.889 374.592 156.375C374.844 157.548 374.863 158.68 374.647 159.769C374.436 160.879 373.979 161.846 373.277 162.673L375.682 162.155L376.257 164.824ZM362.079 159.405C362.298 160.422 362.709 161.285 363.312 161.994C363.918 162.723 364.652 163.23 365.511 163.515C366.394 163.816 367.324 163.862 368.302 163.651C369.807 163.327 370.912 162.568 371.617 161.373C372.341 160.174 372.534 158.792 372.198 157.228C371.857 155.644 371.11 154.455 369.957 153.659C368.823 152.86 367.504 152.622 365.998 152.946C365.021 153.157 364.189 153.571 363.504 154.189C362.842 154.822 362.383 155.586 362.125 156.48C361.872 157.394 361.856 158.369 362.079 159.405Z" fill="#555555"/>
<path d="M368.396 194.162C368.389 193.402 368.643 192.75 369.158 192.205C369.673 191.68 370.331 191.415 371.131 191.407C371.891 191.4 372.533 191.665 373.058 192.2C373.603 192.735 373.879 193.373 373.885 194.113C373.892 194.852 373.628 195.485 373.092 196.01C372.577 196.554 371.94 196.83 371.18 196.837C370.38 196.844 369.717 196.58 369.193 196.045C368.668 195.53 368.402 194.902 368.396 194.162Z" fill="#555555"/>
<path d="M375.377 231.911C375.08 233.423 374.48 234.711 373.578 235.777C372.676 236.843 371.56 237.593 370.232 238.025C368.9 238.477 367.449 238.548 365.879 238.24C364.309 237.932 362.983 237.315 361.901 236.389C360.835 235.486 360.086 234.371 359.654 233.043C359.222 231.715 359.154 230.295 359.451 228.784C359.678 227.626 360.112 226.611 360.752 225.738C361.392 224.865 362.206 224.199 363.193 223.741L360.72 223.255L361.252 220.547L383.095 224.836L382.54 227.662L373.944 225.974C374.645 226.764 375.109 227.67 375.336 228.693C375.583 229.72 375.596 230.793 375.377 231.911ZM361.97 229.034C361.773 230.035 361.824 230.972 362.121 231.846C362.434 232.743 362.958 233.498 363.694 234.111C364.445 234.748 365.36 235.173 366.44 235.384C367.519 235.596 368.517 235.548 369.434 235.239C370.367 234.953 371.138 234.452 371.747 233.736C372.352 233.04 372.754 232.191 372.95 231.19C373.143 230.209 373.092 229.272 372.799 228.379C372.506 227.485 371.981 226.73 371.226 226.113C370.491 225.5 369.583 225.087 368.504 224.875C367.424 224.663 366.418 224.7 365.486 224.986C364.573 225.275 363.802 225.776 363.173 226.488C362.564 227.204 362.162 228.053 361.97 229.034Z" fill="#555555"/>
<path d="M358.144 261.612C357.937 261.538 357.67 261.422 357.344 261.264L361.658 249.107C360.278 248.808 359.009 249.005 357.851 249.698C356.705 250.416 355.871 251.51 355.349 252.98C354.714 254.771 354.806 256.427 355.624 257.948L353.339 258.825C352.788 257.865 352.486 256.803 352.433 255.638C352.373 254.492 352.563 253.297 353.005 252.053C353.566 250.47 354.385 249.179 355.461 248.181C356.555 247.19 357.807 246.563 359.216 246.299C360.619 246.054 362.055 246.192 363.526 246.714C364.977 247.229 366.173 248.014 367.114 249.07C368.049 250.144 368.636 251.36 368.876 252.719C369.127 254.102 368.999 255.511 368.491 256.943C367.983 258.376 367.201 259.531 366.147 260.409C365.105 261.312 363.889 261.868 362.5 262.075C361.104 262.301 359.652 262.147 358.144 261.612ZM366.201 256.13C366.662 254.83 366.654 253.596 366.177 252.429C365.693 251.281 364.837 250.405 363.609 249.799L360.198 259.412C361.514 259.709 362.725 259.555 363.831 258.95C364.949 258.371 365.739 257.431 366.201 256.13Z" fill="#555555"/>
<path d="M344.697 271.376C345.29 270.219 346.011 269.184 346.86 268.271C347.728 267.367 348.557 266.736 349.348 266.377L350.83 268.484C350.066 268.879 349.322 269.453 348.599 270.207C347.877 270.96 347.283 271.791 346.818 272.698C345.669 274.941 345.735 276.391 347.017 277.047C347.444 277.266 347.86 277.288 348.264 277.113C348.668 276.938 349.042 276.647 349.386 276.239C349.739 275.857 350.201 275.285 350.771 274.521C351.533 273.473 352.216 272.643 352.822 272.032C353.418 271.438 354.124 271.025 354.94 270.791C355.756 270.558 356.663 270.696 357.66 271.207C358.941 271.863 359.691 272.921 359.91 274.381C360.146 275.851 359.804 277.484 358.883 279.282C358.4 280.226 357.801 281.11 357.086 281.935C356.372 282.76 355.664 283.374 354.962 283.779L353.493 281.645C354.834 280.871 355.905 279.701 356.707 278.134C357.263 277.048 357.509 276.129 357.445 275.377C357.381 274.625 357.055 274.099 356.467 273.798C356.004 273.561 355.557 273.534 355.126 273.718C354.695 273.902 354.299 274.193 353.937 274.592C353.566 275.009 353.082 275.603 352.484 276.376C351.705 277.415 351.022 278.222 350.435 278.798C349.857 279.401 349.173 279.814 348.384 280.039C347.594 280.264 346.719 280.13 345.758 279.638C344.476 278.982 343.735 277.906 343.535 276.41C343.343 274.941 343.731 273.263 344.697 271.376Z" fill="#555555"/>
<path d="M332.757 293.41C332.691 292.861 332.746 292.273 332.924 291.646C333.118 291.031 333.398 290.448 333.764 289.899C334.651 288.568 335.697 287.775 336.901 287.52C338.105 287.264 339.372 287.581 340.703 288.468L347.967 293.311L349.465 291.064L351.437 292.379L349.939 294.626L352.834 296.556L351.237 298.952L348.341 297.022L345.812 300.816L343.84 299.501L346.369 295.707L339.206 290.931C338.49 290.454 337.824 290.263 337.209 290.357C336.582 290.468 336.047 290.856 335.603 291.522C335.115 292.254 334.907 293.017 334.979 293.81L332.757 293.41Z" fill="#555555"/>
<path d="M329.14 321.262L327.147 323.341L315.671 312.335L317.665 310.257L329.14 321.262ZM330.352 324.42C330.739 324.015 331.195 323.801 331.718 323.776C332.227 323.765 332.669 323.94 333.044 324.3C333.419 324.66 333.612 325.094 333.623 325.603C333.634 326.14 333.446 326.611 333.058 327.015C332.671 327.419 332.222 327.627 331.713 327.637C331.205 327.676 330.763 327.516 330.388 327.156C329.998 326.782 329.798 326.327 329.786 325.789C329.776 325.28 329.964 324.824 330.352 324.42Z" fill="#555555"/>
<path d="M310.613 346.655L296.467 329.468L298.598 327.714L300.2 329.66C300.135 328.574 300.334 327.542 300.798 326.564C301.263 325.586 301.951 324.722 302.862 323.972C304.051 322.993 305.332 322.379 306.706 322.129C308.08 321.878 309.425 322.002 310.741 322.499C312.054 323.024 313.219 323.904 314.236 325.14C315.253 326.375 315.886 327.68 316.136 329.054C316.371 330.441 316.234 331.784 315.724 333.085C315.214 334.385 314.365 335.525 313.176 336.503C312.295 337.228 311.345 337.725 310.324 337.995C309.316 338.281 308.298 338.303 307.27 338.061L312.837 344.825L310.613 346.655ZM304.278 326.07C303.506 326.706 302.949 327.462 302.608 328.338C302.28 329.23 302.206 330.146 302.384 331.087C302.576 332.043 303.021 332.946 303.72 333.795C304.419 334.645 305.213 335.247 306.102 335.604C307.004 335.975 307.917 336.078 308.843 335.912C309.768 335.746 310.617 335.345 311.389 334.71C312.176 334.062 312.741 333.3 313.081 332.423C313.407 331.56 313.482 330.643 313.306 329.674C313.127 328.733 312.688 327.838 311.989 326.989C311.29 326.14 310.49 325.529 309.588 325.158C308.684 324.814 307.77 324.711 306.847 324.849C305.922 325.015 305.065 325.422 304.278 326.07Z" fill="#555555"/>
<path d="M279.563 349.677C279.449 349.488 279.317 349.23 279.166 348.901L290.22 342.251C289.344 341.144 288.238 340.49 286.904 340.289C285.563 340.116 284.224 340.431 282.887 341.235C281.259 342.215 280.278 343.552 279.943 345.247L277.622 344.473C277.806 343.382 278.247 342.369 278.946 341.436C279.627 340.512 280.534 339.71 281.665 339.03C283.104 338.164 284.556 337.687 286.021 337.599C287.496 337.529 288.861 337.84 290.117 338.531C291.357 339.233 292.378 340.252 293.182 341.589C293.976 342.908 294.401 344.275 294.458 345.688C294.497 347.111 294.178 348.423 293.5 349.625C292.816 350.853 291.822 351.86 290.52 352.643C289.217 353.427 287.88 353.823 286.508 353.831C285.129 353.867 283.838 353.524 282.633 352.802C281.411 352.09 280.388 351.048 279.563 349.677ZM289.267 350.561C290.45 349.849 291.227 348.892 291.6 347.687C291.955 346.493 291.851 345.272 291.287 344.024L282.546 349.282C283.374 350.348 284.407 350.999 285.646 351.234C286.878 351.497 288.085 351.272 289.267 350.561Z" fill="#555555"/>
<path d="M268.237 364.09C266.214 364.953 264.456 365.116 262.966 364.578C261.456 364.048 260.282 362.799 259.442 360.83L255.674 352.001L258.185 350.929L259.009 352.861C259.16 351.992 259.571 351.197 260.242 350.475C260.902 349.78 261.793 349.194 262.915 348.715C264.552 348.016 266.036 347.85 267.367 348.217C268.68 348.592 269.611 349.424 270.16 350.711C270.71 351.999 270.68 353.229 270.072 354.402C269.471 355.593 268.15 356.625 266.108 357.496L261.914 359.286L262.138 359.81C262.625 360.951 263.329 361.683 264.25 362.008C265.171 362.332 266.276 362.219 267.563 361.67C268.428 361.301 269.211 360.793 269.913 360.145C270.623 359.516 271.161 358.841 271.528 358.119L273.479 359.635C272.984 360.564 272.279 361.408 271.364 362.168C270.457 362.947 269.414 363.587 268.237 364.09ZM263.345 350.945C262.333 351.377 261.554 351.97 261.006 352.726C260.467 353.5 260.208 354.371 260.23 355.34L261.102 357.382L265.185 355.639C267.429 354.682 268.23 353.449 267.586 351.94C267.272 351.204 266.74 350.747 265.989 350.567C265.238 350.387 264.357 350.513 263.345 350.945Z" fill="#555555"/>
<path d="M241.771 356.321C243.023 355.969 244.272 355.795 245.519 355.797C246.772 355.819 247.799 355.998 248.6 356.334L248.061 358.854C247.252 358.562 246.325 358.406 245.282 358.388C244.238 358.37 243.225 358.499 242.243 358.775C239.817 359.456 238.798 360.49 239.188 361.877C239.318 362.339 239.584 362.659 239.987 362.836C240.391 363.014 240.859 363.09 241.392 363.065C241.911 363.064 242.645 363.014 243.593 362.914C244.879 362.76 245.952 362.697 246.812 362.726C247.653 362.76 248.436 362.997 249.162 363.437C249.888 363.877 250.403 364.636 250.706 365.714C251.095 367.1 250.829 368.37 249.906 369.522C248.989 370.694 247.558 371.553 245.613 372.1C244.593 372.386 243.537 372.548 242.446 372.585C241.356 372.621 240.423 372.519 239.65 372.28L240.217 369.752C241.696 370.209 243.282 370.199 244.977 369.723C246.151 369.393 246.992 368.949 247.5 368.391C248.008 367.833 248.173 367.236 247.994 366.6C247.854 366.1 247.569 365.754 247.142 365.562C246.714 365.371 246.231 365.278 245.692 365.284C245.135 365.295 244.369 365.344 243.396 365.431C242.105 365.565 241.048 365.613 240.227 365.574C239.392 365.559 238.624 365.339 237.922 364.912C237.221 364.486 236.724 363.753 236.432 362.714C236.042 361.327 236.328 360.052 237.289 358.889C238.236 357.75 239.73 356.894 241.771 356.321Z" fill="#555555"/>
<path d="M211.032 367.772C211.789 367.707 212.459 367.91 213.041 368.382C213.604 368.856 213.919 369.491 213.988 370.288C214.053 371.045 213.839 371.706 213.345 372.271C212.853 372.855 212.239 373.179 211.502 373.242C210.764 373.305 210.114 373.09 209.549 372.597C208.967 372.125 208.643 371.51 208.578 370.753C208.509 369.956 208.722 369.275 209.215 368.711C209.689 368.148 210.294 367.835 211.032 367.772Z" fill="#555555"/>
</svg>
