<svg width="24" height="24" viewBox="0 0 24 24" fill="none" xmlns="http://www.w3.org/2000/svg">
<path d="M12 21C10.7369 19.9227 9.56619 18.7416 8.5 17.4691C6.9 15.5581 5 12.712 5 10.0001C4.99858 7.1676 6.70425 4.61344 9.32107 3.52945C11.9379 2.44545 14.9501 3.04529 16.952 5.04905C18.2685 6.35966 19.0059 8.14244 19 10.0001C19 12.712 17.1 15.5581 15.5 17.4691C14.4338 18.7416 13.2631 19.9227 12 21ZM12 5.00005C9.23995 5.00336 7.00331 7.24 7 10.0001C7 11.1661 7.527 13.1851 10.035 16.1861C10.6531 16.9241 11.309 17.6297 12 18.3001C12.691 17.6305 13.3472 16.9259 13.966 16.1891C16.473 13.1841 17 11.1651 17 10.0001C16.9967 7.24 14.7601 5.00336 12 5.00005ZM12 13.0001C10.3431 13.0001 9 11.6569 9 10.0001C9 8.3432 10.3431 7.00005 12 7.00005C13.6569 7.00005 15 8.3432 15 10.0001C15 10.7957 14.6839 11.5588 14.1213 12.1214C13.5587 12.684 12.7957 13.0001 12 13.0001Z" fill="#AAAAAA"/>
</svg>
