<svg width="947" height="436" viewBox="0 0 947 436" fill="none" xmlns="http://www.w3.org/2000/svg">
<path d="M96.5 67C112 67 125.417 69.5833 136.75 74.75C148.25 79.9167 157.083 87.25 163.25 96.75C169.417 106.25 172.5 117.5 172.5 130.5C172.5 143.333 169.417 154.583 163.25 164.25C157.083 173.75 148.25 181.083 136.75 186.25C125.417 191.25 112 193.75 96.5 193.75H61.25V242H20.75V67H96.5ZM94.25 160.75C106.417 160.75 115.667 158.167 122 153C128.333 147.667 131.5 140.167 131.5 130.5C131.5 120.667 128.333 113.167 122 108C115.667 102.667 106.417 100 94.25 100H61.25V160.75H94.25ZM307.875 204.5H226.625L211.125 242H169.625L247.625 67H287.625L365.875 242H323.375L307.875 204.5ZM295.125 173.75L267.375 106.75L239.625 173.75H295.125ZM411.492 100H355.492V67H507.992V100H451.992V242H411.492V100ZM641.283 242L607.533 193.25H605.533H570.283V242H529.783V67H605.533C621.033 67 634.45 69.5833 645.783 74.75C657.283 79.9167 666.117 87.25 672.283 96.75C678.45 106.25 681.533 117.5 681.533 130.5C681.533 143.5 678.367 154.75 672.033 164.25C665.867 173.583 657.033 180.75 645.533 185.75L684.783 242H641.283ZM640.533 130.5C640.533 120.667 637.367 113.167 631.033 108C624.7 102.667 615.45 100 603.283 100H570.283V161H603.283C615.45 161 624.7 158.333 631.033 153C637.367 147.667 640.533 140.167 640.533 130.5Z" fill="white"/>
<path d="M64.79 398.86C53.7333 398.86 43.71 396.483 34.72 391.73C25.8333 386.873 18.8067 380.208 13.64 371.735C8.57667 363.158 6.045 353.497 6.045 342.75C6.045 332.003 8.57667 322.393 13.64 313.92C18.8067 305.343 25.8333 298.678 34.72 293.925C43.71 289.068 53.785 286.64 64.945 286.64C74.3483 286.64 82.8217 288.293 90.365 291.6C98.0117 294.907 104.418 299.66 109.585 305.86L93.465 320.74C86.1283 312.267 77.035 308.03 66.185 308.03C59.4683 308.03 53.475 309.528 48.205 312.525C42.935 315.418 38.8017 319.5 35.805 324.77C32.9117 330.04 31.465 336.033 31.465 342.75C31.465 349.467 32.9117 355.46 35.805 360.73C38.8017 366 42.935 370.133 48.205 373.13C53.475 376.023 59.4683 377.47 66.185 377.47C77.035 377.47 86.1283 373.182 93.465 364.605L109.585 379.485C104.418 385.788 98.0117 390.593 90.365 393.9C82.7183 397.207 74.1933 398.86 64.79 398.86ZM195.672 397L174.747 366.775H173.507H151.652V397H126.542V288.5H173.507C183.117 288.5 191.435 290.102 198.462 293.305C205.592 296.508 211.068 301.055 214.892 306.945C218.715 312.835 220.627 319.81 220.627 327.87C220.627 335.93 218.663 342.905 214.737 348.795C210.913 354.582 205.437 359.025 198.307 362.125L222.642 397H195.672ZM195.207 327.87C195.207 321.773 193.243 317.123 189.317 313.92C185.39 310.613 179.655 308.96 172.112 308.96H151.652V346.78H172.112C179.655 346.78 185.39 345.127 189.317 341.82C193.243 338.513 195.207 333.863 195.207 327.87ZM324.531 376.85V397H240.521V288.5H322.516V308.65H265.476V332.21H315.851V351.74H265.476V376.85H324.531ZM415.966 373.75H365.591L355.981 397H330.251L378.611 288.5H403.411L451.926 397H425.576L415.966 373.75ZM408.061 354.685L390.856 313.145L373.651 354.685H408.061ZM480.208 308.96H445.488V288.5H540.038V308.96H505.318V397H480.208V308.96ZM553.549 288.5H578.659V397H553.549V288.5ZM656.953 398.86C645.69 398.86 635.511 396.432 626.418 391.575C617.428 386.718 610.35 380.053 605.183 371.58C600.12 363.003 597.588 353.393 597.588 342.75C597.588 332.107 600.12 322.548 605.183 314.075C610.35 305.498 617.428 298.782 626.418 293.925C635.511 289.068 645.69 286.64 656.953 286.64C668.216 286.64 678.343 289.068 687.333 293.925C696.323 298.782 703.401 305.498 708.568 314.075C713.735 322.548 716.318 332.107 716.318 342.75C716.318 353.393 713.735 363.003 708.568 371.58C703.401 380.053 696.323 386.718 687.333 391.575C678.343 396.432 668.216 398.86 656.953 398.86ZM656.953 377.47C663.36 377.47 669.146 376.023 674.313 373.13C679.48 370.133 683.51 366 686.403 360.73C689.4 355.46 690.898 349.467 690.898 342.75C690.898 336.033 689.4 330.04 686.403 324.77C683.51 319.5 679.48 315.418 674.313 312.525C669.146 309.528 663.36 308.03 656.953 308.03C650.546 308.03 644.76 309.528 639.593 312.525C634.426 315.418 630.345 319.5 627.348 324.77C624.455 330.04 623.008 336.033 623.008 342.75C623.008 349.467 624.455 355.46 627.348 360.73C630.345 366 634.426 370.133 639.593 373.13C644.76 376.023 650.546 377.47 656.953 377.47ZM834.699 288.5V397H814.084L759.989 331.125V397H735.189V288.5H755.959L809.899 354.375V288.5H834.699ZM896.02 398.86C887.443 398.86 879.125 397.723 871.065 395.45C863.108 393.073 856.702 390.025 851.845 386.305L860.37 367.395C865.02 370.805 870.548 373.543 876.955 375.61C883.362 377.677 889.768 378.71 896.175 378.71C903.305 378.71 908.575 377.677 911.985 375.61C915.395 373.44 917.1 370.598 917.1 367.085C917.1 364.502 916.067 362.383 914 360.73C912.037 358.973 909.453 357.578 906.25 356.545C903.15 355.512 898.913 354.375 893.54 353.135C885.273 351.172 878.505 349.208 873.235 347.245C867.965 345.282 863.418 342.13 859.595 337.79C855.875 333.45 854.015 327.663 854.015 320.43C854.015 314.127 855.72 308.443 859.13 303.38C862.54 298.213 867.655 294.132 874.475 291.135C881.398 288.138 889.82 286.64 899.74 286.64C906.663 286.64 913.432 287.467 920.045 289.12C926.658 290.773 932.445 293.15 937.405 296.25L929.655 315.315C919.632 309.632 909.608 306.79 899.585 306.79C892.558 306.79 887.34 307.927 883.93 310.2C880.623 312.473 878.97 315.47 878.97 319.19C878.97 322.91 880.882 325.7 884.705 327.56C888.632 329.317 894.573 331.073 902.53 332.83C910.797 334.793 917.565 336.757 922.835 338.72C928.105 340.683 932.6 343.783 936.32 348.02C940.143 352.257 942.055 357.992 942.055 365.225C942.055 371.425 940.298 377.108 936.785 382.275C933.375 387.338 928.208 391.368 921.285 394.365C914.362 397.362 905.94 398.86 896.02 398.86Z" fill="white"/>
<path d="M835.796 139.293C833.325 137.832 830.611 137.138 827.931 137.138C822.666 137.138 817.534 139.822 814.65 144.655C810.299 151.947 812.711 161.37 820.037 165.701C822.509 167.162 825.222 167.856 827.902 167.856C833.167 167.856 838.299 165.172 841.183 160.339C845.535 153.047 843.123 143.624 835.796 139.293Z" fill="#0240B9"/>
<path d="M771.997 60.5194C769.526 59.0585 766.812 58.3638 764.133 58.3638C758.867 58.3642 753.735 61.0482 750.851 65.8809C746.5 73.1732 748.912 82.5956 756.239 86.9269C758.71 88.3879 761.423 89.0826 764.103 89.0826C769.369 89.0826 774.501 86.3981 777.384 81.5654C781.736 74.2731 779.324 64.8507 771.997 60.5194Z" fill="#0240B9"/>
<path d="M909.071 114.741C905.9 113.579 902.579 112.5 899.133 111.5C903.205 94.8712 904.083 80.156 901.271 69.1166C899.092 60.5622 894.84 54.3643 888.632 50.6947C876.136 43.3081 858.14 47.9856 837.96 63.867C835.304 65.9576 832.64 68.2188 829.979 70.6286C827.442 68.0896 824.896 65.6983 822.349 63.4781C804.334 47.7769 787.722 41.8694 775.144 46.5725C776.501 47.1212 777.823 47.769 779.092 48.519C783.752 51.2741 787.476 55.164 789.975 59.8029C796.588 61.6765 804.625 66.5218 813.19 73.9874C815.466 75.9716 817.744 78.1082 820.017 80.3768C813.196 87.5505 806.48 95.6449 800.048 104.448C790.693 105.438 781.687 106.869 773.21 108.714C772.718 106.424 772.29 104.173 771.919 101.964C769.38 102.661 766.749 103.024 764.104 103.024C762.003 103.024 759.915 102.793 757.875 102.35C758.371 105.537 758.981 108.802 759.709 112.137C754.814 113.566 750.159 115.147 745.793 116.877C721.877 126.355 708.811 139.558 709.002 154.054C709.194 168.549 722.603 181.405 746.76 190.254C749.932 191.416 753.252 192.496 756.699 193.496C752.627 210.125 751.748 224.839 754.561 235.879C756.74 244.433 760.992 250.631 767.199 254.3C771.068 256.587 775.463 257.717 780.288 257.717C791.047 257.717 803.939 252.093 817.872 241.128C820.528 239.038 823.192 236.777 825.853 234.367C828.389 236.906 830.935 239.297 833.483 241.517C847.473 253.711 860.617 260 871.683 260C875.927 260 879.866 259.075 883.429 257.203C884.719 256.525 885.941 255.711 887.1 254.788C883.674 254.17 880.367 252.949 877.344 251.162C874.946 249.744 872.801 248.021 870.939 246.055C863.594 245.772 853.546 240.512 842.643 231.008C840.366 229.024 838.088 226.887 835.815 224.619C842.637 217.445 849.352 209.35 855.784 200.547C865.128 199.558 874.123 198.13 882.591 196.288C882.729 196.923 882.859 197.553 882.987 198.182C885.991 197.18 889.151 196.658 892.331 196.658H892.333C893.886 196.658 895.432 196.785 896.957 197.029C896.689 195.652 896.408 194.267 896.1 192.865C901.003 191.434 905.666 189.851 910.039 188.119C933.955 178.641 947.021 165.437 946.83 150.941C946.639 136.445 933.229 123.589 909.071 114.741ZM829.476 90.6477C832.752 94.4938 835.991 98.5979 839.166 102.931C832.888 102.768 825.702 102.79 818.652 103.086C822.212 98.675 825.83 94.5166 829.476 90.6477ZM789.545 119.854C786.79 124.187 783.643 129.411 780.747 134.606C779.233 130.415 777.873 126.278 776.672 122.218C780.829 121.323 785.129 120.535 789.545 119.854ZM779.909 168.015C782.623 173.525 786.119 180.081 789.585 186.027C784.242 185.326 779.07 184.461 774.107 183.439C775.786 178.381 777.726 173.226 779.909 168.015ZM760.538 180.096C704.821 162.985 715.962 140.158 763.17 125.641C765.594 133.912 768.631 142.459 772.219 151.095C767.503 160.998 763.584 170.754 760.538 180.096ZM809.251 230.172C767.095 262.398 761.865 232.1 770.214 196.859C779.237 198.764 788.895 200.174 798.967 201.061C804.556 209.421 810.409 217.169 816.393 224.131C814.008 226.283 811.625 228.304 809.251 230.172ZM826.356 214.346C823.08 210.501 819.842 206.397 816.667 202.065C822.804 202.227 830.102 202.206 837.18 201.908C833.62 206.319 830.001 210.477 826.356 214.346ZM848.135 187.269C835.217 188.349 820.316 188.542 806.888 187.686C799.987 176.791 792.995 163.8 787.552 151.492C793.121 140.444 800.323 128.302 807.697 117.725C820.684 116.647 835.321 116.447 848.945 117.309C855.858 128.23 862.821 141.15 868.27 153.521C862.703 164.563 855.506 176.698 848.135 187.269ZM866.288 185.14C869.032 180.824 872.172 175.611 875.059 170.436C876.561 174.607 877.918 178.733 879.118 182.785C874.974 183.676 870.688 184.462 866.288 185.14ZM875.921 136.985C873.207 131.463 869.716 124.918 866.246 118.967C871.59 119.668 876.762 120.533 881.725 121.554C880.045 126.615 878.105 131.772 875.921 136.985ZM856.866 103.935C851.276 95.5751 845.423 87.8261 839.439 80.8637C880.157 45.0692 896.73 60.3787 885.617 108.137C876.595 106.233 866.938 104.821 856.866 103.935ZM904.903 175.157C901.049 176.685 896.943 178.088 892.624 179.364C890.193 171.08 887.161 162.529 883.599 153.927C888.322 144.014 892.245 134.248 895.294 124.897C935.883 137.138 949.793 156.702 904.903 175.157Z" fill="#0240B9"/>
<path d="M884.438 239.161C886.909 240.622 889.623 241.316 892.303 241.316C897.568 241.316 902.7 238.632 905.584 233.799C909.935 226.507 907.523 217.085 900.197 212.753C897.725 211.292 895.012 210.598 892.332 210.598C887.067 210.598 881.935 213.282 879.051 218.115C874.699 225.407 877.111 234.83 884.438 239.161Z" fill="#0240B9"/>
</svg>
