<svg width="24" height="24" viewBox="0 0 24 24" fill="none" xmlns="http://www.w3.org/2000/svg">
<path d="M17.595 21.006H17.567C13.7253 20.9115 10.0593 19.3775 7.29498 16.708C4.6245 13.9463 3.08967 10.2816 2.99486 6.44103C2.9892 5.90303 3.20044 5.38539 3.58098 5.00503L6.29498 2.29303C6.68548 1.90265 7.31848 1.90265 7.70898 2.29303L11.709 6.29303C12.0994 6.68353 12.0994 7.31653 11.709 7.70703L10.113 9.30003C10.409 10.406 10.9542 11.4294 11.707 12.292C12.568 13.045 13.5902 13.5907 14.695 13.887L16.295 12.293C16.6855 11.9026 17.3185 11.9026 17.709 12.293L21.709 16.293C22.0994 16.6835 22.0994 17.3165 21.709 17.707L18.995 20.42C18.6249 20.7939 18.121 21.0048 17.595 21.006ZM6.99998 4.41503H6.99498L4.99498 6.41903C5.07652 9.73769 6.4013 12.9047 8.70698 15.293C11.0954 17.5979 14.2618 18.9226 17.58 19.005L19.587 17L16.995 14.415L15.702 15.707C15.517 15.8941 15.265 15.9995 15.002 16C14.9317 16.0001 14.8617 15.9927 14.793 15.978C13.1266 15.6094 11.5794 14.8286 10.293 13.707C9.17143 12.4206 8.39059 10.8734 8.02198 9.20703C7.95244 8.8758 8.05517 8.53187 8.29498 8.29303L9.58698 7.00003L6.99998 4.41503Z" fill="#AAAAAA"/>
</svg>
